<svg width="58" height="60" viewBox="0 0 58 60" fill="none" xmlns="http://www.w3.org/2000/svg">
<path d="M4.14985 0.038105C4.14502 0.0621986 3.90802 0.148933 3.62749 0.240486C3.07611 0.41396 2.64565 0.688622 2.21519 1.14639C1.9395 1.44033 1.54289 2.24504 1.39779 2.79436C1.22851 3.45452 1.11727 3.95084 1.06406 4.31223C1.01086 4.65436 0.822232 5.32896 0.696479 5.63736C0.527196 6.05176 0.236996 7.36725 0.18863 7.9503C0.15961 8.28279 0.106406 8.61528 0.0677132 8.69238C0.01451 8.80802 0 9.16942 0 10.6536C0 11.6607 0.0193466 12.4846 0.0435299 12.4991C0.111243 12.5425 0.1451 12.8075 0.193466 13.6026C0.212813 14.0025 0.266016 14.5277 0.309546 14.7687C0.353076 15.0048 0.430463 15.4626 0.483666 15.7806C0.672296 16.9274 0.725499 17.2358 0.822232 17.7321C0.875435 18.0116 0.972168 18.585 1.03504 19.0091C1.10276 19.4379 1.18982 19.9439 1.23335 20.1415C1.451 21.1341 1.49936 21.3509 1.58642 21.7316C1.63963 21.9581 1.7412 22.358 1.81375 22.6231C1.97819 23.2157 2.07493 23.8277 2.07976 24.2277C2.07976 25.1576 2.40382 26.8972 2.72788 27.7067C2.76657 27.7983 2.85363 28.0585 2.92618 28.2849C3.0616 28.6993 3.19219 28.9933 3.48239 29.5137C3.9322 30.328 4.09665 30.5979 4.27561 30.8292C4.38685 30.9689 4.52228 31.1569 4.58515 31.2388C4.83182 31.5809 5.11718 31.817 5.51379 32.0194C6.61171 32.5687 7.5597 32.5687 8.69631 32.0194C8.94298 31.8989 9.16547 31.8025 9.18965 31.8025C9.21383 31.8025 9.29122 31.9905 9.35893 32.2218C9.42665 32.4579 9.51371 32.7422 9.5524 32.8626C9.59109 32.9831 9.6443 33.2192 9.66848 33.3927C9.6975 33.5662 9.74103 33.7782 9.77005 33.8697C9.86678 34.2167 9.97803 35.5177 9.97803 36.3803C9.97803 37.715 9.82809 38.8522 9.48469 40.0906C9.30089 40.7652 9.24769 40.982 9.1703 41.3194C8.92847 42.3939 8.83174 43.56 8.89945 44.5382C8.94782 45.1935 9.09292 46.1284 9.18481 46.3693C9.21383 46.4464 9.23802 46.5717 9.23802 46.6488C9.23802 46.9282 9.69266 48.0944 9.96835 48.5232C10.0119 48.5907 10.0699 48.716 10.0989 48.7979C10.157 48.9713 10.6552 49.7231 11.0421 50.2194C11.4242 50.7109 12.2996 51.5397 12.8655 51.9444C13.6394 52.4986 13.6152 52.4697 13.6829 53.0286C13.7168 53.2937 13.7845 53.6743 13.8425 53.8719C13.9828 54.3971 14.4471 55.2211 14.9453 55.8427C15.2645 56.2379 16.3673 57.0281 16.8316 57.1919C16.9235 57.2257 17.262 57.3172 17.5813 57.3991C18.0988 57.5292 18.239 57.5437 18.8872 57.5437C19.5111 57.5485 19.6804 57.5292 20.1205 57.4184C20.7444 57.2642 20.8073 57.2642 21.2184 57.4088C21.6537 57.563 21.7843 57.5822 22.4469 57.6256L23.008 57.6593L23.5545 58.1557C23.8544 58.4255 24.2558 58.7532 24.4445 58.8785C25.0007 59.2447 25.9003 59.6494 26.4952 59.7988C26.6113 59.8277 26.7177 59.8856 26.7322 59.9241C26.7709 60.0253 31.2448 60.0253 31.2448 59.9241C31.2448 59.8807 31.3802 59.8229 31.6221 59.7603C32.5459 59.5242 33.431 59.076 34.2145 58.4544L34.8094 57.9774L35.1673 57.9485C35.7961 57.8906 36.9327 57.5919 37.1262 57.4377C37.1552 57.4088 37.2665 57.3606 37.3729 57.322C37.5615 57.2546 37.605 57.2594 38.1225 57.3991C38.6207 57.5292 38.7416 57.5437 39.443 57.5437C40.1491 57.5437 40.27 57.5292 40.7972 57.3991C41.5372 57.2112 41.634 57.1727 42.1079 56.8932C43.0753 56.3246 43.7282 55.6114 44.2458 54.5706C44.4876 54.0743 44.623 53.6261 44.6907 53.0527C44.7197 52.8022 44.7536 52.5564 44.7681 52.513C44.7875 52.4408 45.4598 51.9155 45.8225 51.6891C46.0498 51.5445 47.1671 50.4025 47.3896 50.0893C47.9071 49.352 48.1586 48.9665 48.236 48.7882C48.2844 48.6822 48.3956 48.4558 48.4827 48.2823C48.7777 47.7185 49.0727 46.8993 49.1404 46.4753C49.1646 46.3163 49.2178 46.0223 49.2565 45.8248C49.4935 44.6008 49.4935 43.0926 49.2517 41.8494C49.2082 41.6374 49.1598 41.3531 49.1404 41.223C49.1211 41.0881 49.0631 40.8423 49.005 40.6688C48.7342 39.8208 48.5987 39.2377 48.4536 38.3077C48.3666 37.7247 48.3472 37.4066 48.3472 36.4043C48.3472 34.925 48.4391 34.183 48.8019 32.7663C48.8551 32.5687 48.918 32.3133 48.947 32.1977C48.976 32.082 49.0437 31.9471 49.0921 31.8989C49.184 31.8074 49.1937 31.8122 49.658 32.0387C50.664 32.535 51.4379 32.5446 52.4197 32.082C52.9904 31.8122 53.3532 31.4556 53.9046 30.622C54.3882 29.8896 54.4366 29.8028 54.7752 29.08C55.2975 27.9669 55.3459 27.832 55.5248 27.0562C55.5732 26.8442 55.6458 26.531 55.6844 26.3575C55.815 25.8178 55.9166 25.0613 55.9408 24.4059C55.965 23.8952 56.0037 23.6639 56.1391 23.1531C56.2358 22.8062 56.3374 22.3532 56.3713 22.1412C56.4051 21.9292 56.4535 21.669 56.4825 21.563C56.5454 21.3365 56.7388 20.4547 56.8743 19.8041C57.1113 18.6525 57.2467 17.8767 57.3628 16.9612C57.3918 16.7347 57.4402 16.4552 57.4643 16.3347C57.4934 16.2143 57.5417 15.9107 57.5804 15.6601C57.6191 15.4095 57.682 14.9855 57.7207 14.7205C57.7594 14.4555 57.8077 14.1037 57.8223 13.935C57.8416 13.7712 57.8851 13.6026 57.9238 13.564C58.0254 13.4676 58.0254 7.98885 57.9238 7.90694C57.89 7.87803 57.8319 7.68528 57.7981 7.47808C57.7449 7.11668 57.5756 6.41316 57.4402 5.97466C57.3628 5.72891 57.0194 4.37006 56.8743 3.75809C56.7195 3.11239 56.5309 2.39442 56.4873 2.28841C56.4632 2.2354 56.4196 2.1053 56.3809 1.99447C56.202 1.4596 55.4813 0.698257 54.8816 0.41396C54.6833 0.322403 54.3737 0.206757 54.1996 0.163387C54.0255 0.120022 53.8804 0.0670166 53.8804 0.042923C53.8804 -0.0197182 52.7776 -0.0100822 52.7583 0.0477409C52.7486 0.0766525 52.589 0.139294 52.4052 0.187481C51.9941 0.293491 51.7474 0.409138 51.2686 0.693439C51.0703 0.813904 50.6205 1.05484 50.2722 1.22831C49.924 1.40178 49.5032 1.63307 49.3339 1.74872C49.1646 1.85955 48.8889 2.0282 48.7197 2.11975C48.0425 2.50043 46.6592 3.6328 45.7741 4.53871C45.0825 5.24705 44.0378 6.44207 43.7718 6.8372C43.704 6.93357 43.5299 7.16487 43.3848 7.34315C43.2397 7.52145 43.0076 7.82502 42.877 8.01777C42.7416 8.21533 42.5578 8.45626 42.4659 8.56227C42.374 8.66828 42.1998 8.89476 42.0838 9.06341C41.9725 9.23206 41.7162 9.59828 41.5179 9.87776C41.3244 10.1572 41.0826 10.5235 40.9858 10.6969C40.8891 10.8704 40.7488 11.0872 40.6763 11.1788C40.6037 11.2703 40.507 11.4101 40.4635 11.492C40.42 11.5691 40.3281 11.7233 40.2652 11.8293C40.1975 11.9353 40.0814 12.1473 39.9992 12.3064C39.9169 12.4605 39.7718 12.7111 39.6751 12.8605C39.5784 13.0099 39.3027 13.511 39.0657 13.9736C38.8287 14.4362 38.611 14.8506 38.5772 14.8891C38.5433 14.9277 38.4563 15.1012 38.3837 15.2746C38.3112 15.4481 38.2144 15.6746 38.1612 15.7806C38.1129 15.8866 37.9678 16.1902 37.8469 16.4552C37.7211 16.7202 37.5905 16.9997 37.5567 17.0816C37.518 17.1587 37.4551 17.3225 37.4116 17.443C37.368 17.5635 37.3003 17.7562 37.2568 17.8767C37.0875 18.3441 37.0053 18.3826 36.5458 18.214C35.8832 17.9634 34.1613 17.5105 33.7018 17.4671C33.5374 17.4478 33.2569 17.3996 33.0827 17.3659C32.9086 17.3274 32.5507 17.2599 32.2847 17.2214C32.0187 17.1828 31.6608 17.1346 31.4866 17.1057C31.1819 17.0623 29.2666 16.8985 29.02 16.8937C28.7443 16.8937 26.7854 17.0672 26.4082 17.1298C26.1808 17.1635 25.8906 17.2069 25.7552 17.2262C25.6246 17.2406 25.3054 17.2985 25.0539 17.3466C24.8024 17.3948 24.4638 17.4478 24.3042 17.4671C24.1446 17.4816 23.9076 17.5249 23.7722 17.5635C23.6416 17.5972 23.303 17.6888 23.0225 17.761C22.742 17.8333 22.2535 17.9779 21.9391 18.0791C21.6247 18.1803 21.2861 18.2766 21.1894 18.2911L21.0104 18.32L20.875 17.9875C20.638 17.4141 20.3381 16.7491 20.2124 16.5227C20.164 16.4263 20.1205 16.3106 20.1205 16.2673C20.1205 16.2287 19.898 15.7517 19.6272 15.2168C19.3515 14.6771 19.1 14.1712 19.0709 14.0941C19.0371 14.0121 18.9549 13.8628 18.8872 13.7568C18.8194 13.6507 18.7421 13.5158 18.7179 13.4532C18.6937 13.3954 18.597 13.2315 18.5051 13.0918C18.418 12.9472 18.2971 12.7352 18.2487 12.6147C18.1617 12.4268 17.8618 11.9353 17.6006 11.5546C17.5474 11.4824 17.5087 11.4149 17.5087 11.4004C17.5087 11.3571 17.0202 10.5909 16.759 10.2343C16.6139 10.0271 16.493 9.84403 16.493 9.81993C16.493 9.75729 15.6272 8.59118 14.4036 7.00103C13.799 6.22041 13.6587 6.04694 13.3927 5.76264C13.2476 5.59881 13.0638 5.39161 12.9913 5.30005C12.5656 4.77482 10.955 3.2425 10.5197 2.9582C10.4133 2.88592 10.2295 2.74618 10.1086 2.6498C9.90548 2.48115 9.52338 2.23058 8.77853 1.78727C8.61893 1.6909 8.45448 1.59452 8.41095 1.56561C8.20781 1.44033 7.73382 1.20421 7.68061 1.20421C7.65159 1.20421 7.54519 1.15121 7.45329 1.08857C6.83904 0.688622 6.21994 0.365772 5.79432 0.235668C5.53314 0.153751 5.31065 0.0670166 5.29614 0.042923C5.25745 -0.0100822 4.17404 -0.0149002 4.14985 0.038105ZM18.21 33.4409C19.1096 33.6336 19.603 33.9131 20.1398 34.5299C20.4832 34.925 20.5751 35.0696 20.8315 35.6575C20.9621 35.9562 20.9669 35.9996 20.9669 36.7176C20.9621 37.4355 20.9572 37.4789 20.817 37.8307C20.6864 38.1487 20.5558 38.3607 20.1447 38.9389C20.0286 39.098 19.8593 39.2377 19.4676 39.4931C18.863 39.8882 18.3551 40.0424 17.6441 40.0424C17.1605 40.0424 16.5269 39.9268 16.3818 39.8111C16.3479 39.787 16.2705 39.7485 16.2076 39.7292C16.1399 39.7099 15.9755 39.6136 15.8449 39.522C15.0323 38.9582 14.7083 38.5149 14.4132 37.5849C14.2536 37.0838 14.2488 36.3032 14.4036 35.8502C14.7131 34.9347 14.9404 34.6022 15.6804 33.9806C15.99 33.7204 17.0734 33.3686 17.6054 33.3493C17.7022 33.3493 17.973 33.3879 18.21 33.4409ZM41.7162 33.6529C42.4514 33.8408 42.669 33.9709 43.3026 34.5877C43.5686 34.8431 43.675 34.9973 43.854 35.3683C44.0861 35.8502 44.2554 36.4814 44.2554 36.8669C44.2554 37.2669 44.062 37.9656 43.825 38.4282C43.5976 38.8763 43.3461 39.1654 42.8528 39.5557C42.2144 40.0617 41.3921 40.2593 40.4054 40.1436C39.6993 40.0617 39.3559 39.9123 38.6836 39.3823C38.0113 38.8522 37.4841 37.7439 37.4841 36.8573C37.4841 36.6115 37.5808 36.1441 37.7114 35.7683C37.8082 35.484 38.229 34.7997 38.4418 34.5829C38.6739 34.3468 39.2737 33.889 39.4526 33.8216C40.1878 33.5276 41.0052 33.4698 41.7162 33.6529Z" fill="#F5A02F"/>
</svg>
